<svg aria-hidden="true" style="width:0;height:0;position:absolute;overflow:hidden" xmlns="http://www.w3.org/2000/svg"><defs><symbol id="icon-arrow-more" viewBox="0 0 22 32"><path d="M2.862.019A3.202 3.202 0 0 0 .717 1.182l-.005.006A3.183 3.183 0 0 0 0 3.2c0 1.002.46 1.896 1.181 2.483l.006.005 12.762 10.313L1.187 26.314a3.196 3.196 0 0 0-.47 4.506l-.005-.006a3.196 3.196 0 0 0 4.506.47l-.006.005 15.831-12.8a3.2 3.2 0 0 0 .006-4.971l-.006-.005L5.212.713A3.183 3.183 0 0 0 2.848.02l.014-.001z"/></symbol><symbol id="icon-close-button" viewBox="0 0 32 32"><path d="m17.253 16 7.37-7.37a.89.89 0 0 0-1.256-1.252l.001-.001L16 14.747 8.63 7.369a.893.893 0 0 0-1.262 1.262l-.001-.001L14.745 16l-7.376 7.368a.89.89 0 1 0 1.252 1.256l.001-.001 7.376-7.37 7.37 7.37a.89.89 0 0 0 1.254-1.256l.001.001L17.253 16z"/></symbol><symbol id="icon-menu-button" viewBox="0 0 32 32"><path fill="none" stroke="#fff" style="stroke:var(--color1,#fff)" stroke-linecap="round" stroke-width="2" d="M6 10h20M6 16h20M6 22h20"/></symbol><symbol id="icon-ice-cream" viewBox="0 0 32 32"><path d="M16.108.107c.08.215.241 1.252.241 1.573v.011c0 .818-.318 1.561-.838 2.114l.001-.002c-.449.482-.898.749-1.975 1.185-1.198.489-1.694.783-2.256 1.339-.569.569-.904 1.191-1.024 1.922-.134.796 0 1.358.408 1.68l.207.16-.328.208c-.662.436-1.867 1.46-2.075 1.774-.402.603-.362 1.164.093 1.393l.214.107-.241.228c-.362.341-.436.576-.382 1.191.034.409.02.63-.073.964-.114.436-.114.442.033.75.148.301.563.683.938.844.18.08.187.107.228.723.02.356.053 1.486.08 2.517.02 1.031.068 1.975.107 2.089.034.12.161.281.276.361.388.268.656.556.829.891.195.382.409 1.319 1.058 4.559l.455 2.276.282.268c.535.529 1.56.77 3.247.77 1.693 0 2.704-.235 3.24-.764l.288-.274.414-2.109c.916-4.612.997-4.867 1.714-5.436.22-.181.436-.402.475-.502.047-.114.094-.991.127-2.316.027-1.178.068-2.343.094-2.591l.04-.448.436-.329c.548-.421.763-.803.763-1.392-.006-.696-.462-1.46-1.292-2.142l-.396-.321.195-.276c.81-1.117.301-2.664-1.205-3.694l-.455-.315.167-.174c.743-.796.864-3.173.241-4.827-.374-.984-1.232-2.055-2.283-2.845-.514-.388-1.934-1.245-2.06-1.245-.027 0-.027.047-.006.107zm1.928 2.337c.356.348.783.823.951 1.064.997 1.393 1.252 3.14.649 4.426-.241.522-.964 1.298-1.634 1.76-1.024.71-3.327 1.902-4.933 2.557-2.584 1.052-4.084 1.252-4.258.563-.068-.261.127-.468.951-1.018.742-.508 4.076-2.986 4.136-3.086.02-.027-.321.127-.749.341-1.452.737-2.142.596-2.108-.428.02-.743.556-1.587 1.298-2.068.188-.12.771-.388 1.307-.603 1.76-.709 2.296-1.071 2.892-1.961.356-.529.743-1.507.77-1.922.007-.147.034-.261.053-.261s.322.288.676.636zm1.827 7.606c.489.274.997.743 1.218 1.111.389.662.188 1.325-.649 2.169-.91.924-2.463 1.808-4.171 2.37-1.573.516-3.079.756-5.236.83l-1.339.047.871.053c1.124.074 3.3.007 4.143-.127 2.243-.356 4.151-1.065 5.516-2.042.308-.221.629-.402.716-.402.221 0 1.185.924 1.38 1.312.107.221.133.382.114.596-.1.891-1.186 1.366-3.803 1.68-3.2.382-7.384.007-9.172-.816-.844-.388-.984-.61-.77-1.198.067-.188.08-.409.053-.724-.034-.415-.027-.468.12-.622.335-.362.898-.569 2.96-1.092.723-.187 1.707-.482 2.175-.656 1.138-.415 3.274-1.493 4.264-2.156.931-.616 1.065-.643 1.607-.334zm-8.891 8.194c1.406.409 2.652.529 4.968.482 1.74-.033 2.812-.14 4.357-.415.316-.053.589-.1.623-.1.074 0 .053 2.571-.027 3.247-.087.716-.282 1.272-.489 1.406-.214.14-1.285.288-2.718.368-2.939.16-5.958 0-6.895-.375-.508-.207-.563-.476-.569-2.959 0-1.653.013-1.881.1-1.847.053.02.348.107.649.194zm1.587 5.69c.482.06 1.004.12 1.164.14l.289.034-.255.281c-.328.355-.83 1.064-1.011 1.426-.207.415-.275.442-.582.275l-.261-.148-.147-.91a23.34 23.34 0 0 0-.216-1.217l.028.165c-.06-.173-.121-.173.99-.046zm7.137-.074c0 .013-.034.187-.068.382-.04.2-.207 1.292-.374 2.429-.341 2.377-.569 3.494-.777 3.869-.288.502-.978.796-2.095.891-.436.034-1.748-.053-1.821-.121-.053-.06 1.098-1.486 1.279-1.58.167-.094.213-.08.782.213.663.349.998.403.998.181s-.174-.436-.603-.729c-.395-.282-.535-.443-.535-.63 0-.053.194-.355.428-.669s.575-.817.749-1.118l.329-.542.3.041c.609.087.77.08.75-.053-.013-.068-.127-.261-.255-.422-.127-.167-.228-.335-.228-.368 0-.127.622-1.299.824-1.547.174-.214.315-.322.315-.228zm-4.184.536c.334.221 1.593 1.313 1.673 1.446.034.06-1.258 2.082-1.513 2.37-.027.034-.167-.033-.308-.14a20.117 20.117 0 0 0-1.08-.752l-.085-.052-.904-.596.542-.917c.964-1.613.944-1.587 1.151-1.587.107 0 .341.1.523.228zm2.537.24c-.235.288-.428.469-.508.469-.174 0-.456-.154-.931-.502l-.396-.288.791-.047c.348-.013.665-.034.98-.065l-.064.005c.536-.087.536-.08.128.428zm-5.061 3.221c.616.241 1.66.81 1.962 1.065.214.173.214.187.127.401a6.654 6.654 0 0 1-.43.741l.015-.024a10.9 10.9 0 0 0-.417.682l-.032.061c-.213.415-.281.449-.723.329-.476-.141-.729-.382-.863-.818-.181-.609-.469-2.329-.436-2.597.013-.1.294-.04.796.161z"/></symbol><symbol id="icon-weight" viewBox="0 0 32 32"><path d="M14.178.547c-3.974.589-7.247 2.796-8.452 5.685-.384.913-.487 1.474-.487 2.573.007.812.036 1.114.163 1.552.258.862.443 1.301.827 1.92l.356.574-.4.489c-3.154 3.924-3.501 9.444-.871 13.793.982 1.632 2.586 3.235 4.151 4.169l.466.273 12.743-.108.302-.165c1.057-.596 2.548-1.926 3.383-3.004a12.51 12.51 0 0 0 2.413-5.546l.01-.074c.118-.74.118-2.933-.007-3.63-.377-2.148-1.182-3.988-2.452-5.62-.244-.309-.436-.568-.436-.589 0-.014.133-.237.288-.489a7.777 7.777 0 0 0 .864-1.962c.199-.719.199-2.516 0-3.235-.709-2.551-2.836-4.679-5.843-5.851-.843-.331-2.284-.683-3.214-.797-.864-.1-2.999-.08-3.804.043zm4.498 1.171c3.945.769 6.834 3.184 7.365 6.16.118.668.044 1.804-.155 2.436-.2.618-.569 1.344-1.004 1.962-.178.252-.325.54-.325.633s.155.338.377.582c1.846 2.048 2.821 4.614 2.821 7.388-.007 3.156-1.219 5.923-3.553 8.093-.399.373-.968.841-1.271 1.042l-.554.373-12.211.051-.473-.302c-1.714-1.113-3.258-2.953-4.115-4.908-1.078-2.472-1.189-5.34-.31-7.913.466-1.337 1.086-2.429 2.031-3.58.385-.46.562-.733.562-.862 0-.108-.192-.46-.444-.827-.886-1.287-1.248-2.717-1.034-4.068.222-1.365.842-2.487 1.987-3.601 1.493-1.444 3.576-2.4 6.021-2.76 1.012-.151 3.25-.093 4.284.1z"/><path d="M14.509 2.983c-3.028.496-5.4 2.178-6.175 4.385-.178.496-.207.69-.207 1.402s.029.905.207 1.401c.11.316.317.756.458.978.384.618.554.64 1.316.18a11.719 11.719 0 0 1 3.727-1.474l.078-.014c.916-.187 2.674-.258 3.671-.143 1.558.18 3.25.74 4.602 1.538.384.222.776.409.871.409.562 0 1.278-1.617 1.278-2.874 0-2.796-2.674-5.19-6.463-5.787-.805-.129-2.587-.129-3.362 0zm3.657 1.15c1.271.273 2.437.791 3.317 1.474 1.182.913 1.817 2.185 1.713 3.413-.036.489-.221 1.15-.332 1.222-.03.014-.444-.158-.916-.388a14.138 14.138 0 0 0-3.131-1.081l-.097-.018c-.687-.143-.975-.165-2.511-.158-1.515 0-1.832.022-2.489.158a13.283 13.283 0 0 0-3.196 1.099l.078-.035c-1.1.524-1.042.532-1.241-.116-.258-.84-.096-1.955.406-2.796.267-.445.997-1.186 1.529-1.552 1.012-.698 1.899-1.013 3.804-1.359.391-.071 2.564.029 3.066.137zm-1.203 9.271c-.207.26-.207.504.007.712.14.137.281.172.791.209a6.489 6.489 0 0 1 2.815.865l-.031-.017c.606.359 1.529 1.229 1.943 1.854.613.898 1.034 2.185 1.034 3.134 0 .331.03.431.185.574.236.237.547.237.776 0 .163-.165.169-.208.125-.912-.207-3.479-3.184-6.382-6.744-6.578l-.74-.043-.162.202z"/></symbol><symbol id="icon-cow" viewBox="0 0 32 32"><path d="M6.169.192c-.262.226-1.008 1.781-1.276 2.631-.318 1.052-.427 1.84-.384 2.93.058 1.556.449 2.736 1.31 3.968.225.324.406.601.406.624 0 .015-.138.03-.311.03-.747 0-2.144.248-3.215.571-1.7.512-2.7 1.405-2.7 2.405 0 .354.318.955.659 1.262.659.595 2.1 1.158 3.649 1.428.536.098 2.129.263 2.484.27.065 0 .087.347.087 1.481 0 .977.036 1.736.108 2.202.26 1.668 1.071 3.434 2.142 4.682l.37.428-.246.398c-.362.564-.5.992-.542 1.63-.109 1.533.846 2.893 2.693 3.848 3.517 1.826 8.984 1.112 11.033-1.443.999-1.248 1.115-2.676.325-3.968l-.246-.398.442-.533c.826-.992 1.361-1.984 1.766-3.239.34-1.067.471-2.097.471-3.728 0-.743.021-1.36.058-1.36.333-.007 1.933-.18 2.44-.27 1.556-.27 2.969-.827 3.649-1.428.34-.308.659-.909.659-1.262 0-1.113-1.129-2.014-3.229-2.556-.687-.18-1.983-.398-2.613-.436l-.297-.023.326-.451c.405-.548.912-1.616 1.108-2.315.55-2.021.21-4.373-.97-6.62-.493-.932-.834-1.15-1.231-.783-.152.144-.218.339-.362 1.045-.449 2.247-1.282 4.028-2.498 5.342l-.536.587H10.245l-.478-.518C8.58 5.315 7.718 3.467 7.269 1.212 7.124.505 7.059.311 6.907.168c-.239-.218-.471-.211-.738.022zm.925 4.457c.384.841.862 1.63 1.426 2.359l.449.579-.47.353c-.442.338-.854.82-1.173 1.369l-.137.247-.348-.474c-1.188-1.637-1.484-3.644-.854-5.726.304-1.006.297-.999.572-.127.131.42.377 1.06.536 1.42zm18.845-1.586c.262.728.414 1.569.414 2.444l-.001.093v-.005c0 1.367-.362 2.524-1.122 3.562l-.34.466-.253-.428a4.534 4.534 0 0 0-1.254-1.381l-.013-.009c-.196-.127-.347-.255-.347-.27 0-.022.137-.196.311-.383.804-.894 1.665-2.502 2.092-3.885.13-.428.26-.782.282-.782s.131.264.231.58zM22.24 8.556c.804.338 1.571 1.307 1.694 2.126.065.451.217.737.412.782.087.014.688.067 1.332.112 2.287.151 4.09.639 4.858 1.308.355.316.318.579-.108.902-.854.646-2.7 1.134-4.583 1.218-1.245.052-1.506.089-1.673.262-.123.128-.137.263-.137 1.623 0 1.842-.094 2.901-.326 3.757-.325 1.164-.97 2.405-1.723 3.284l-.311.361-.644-.384a7.832 7.832 0 0 0-2.335-.958l-.054-.011c-2.744-.654-5.778-.256-7.819 1.029l-.471.3-.297-.353c-.405-.474-1.043-1.488-1.296-2.059-.557-1.293-.724-2.345-.724-4.66 0-2.247.116-2.082-1.549-2.172-2.129-.113-3.751-.496-4.772-1.142-.753-.481-.629-.909.42-1.413 1.006-.489 2.388-.781 4.308-.901 1.492-.098 1.527-.121 1.665-.842.203-1.09 1.006-1.991 2.02-2.277.253-.075 1.672-.09 6.016-.083l5.684.015.412.173zm-4.069 15.556c1.774.436 3.099 1.247 3.671 2.254.138.233.196.474.224.842.029.458.008.571-.166.947-.804 1.707-3.757 2.833-6.762 2.578-3.612-.3-5.988-2.315-5.053-4.291.507-1.068 2.222-2.089 4.032-2.39.297-.044.594-.098.652-.113s.71-.015 1.449 0c1.005.023 1.491.068 1.954.173z"/><path d="M10.99 12.321c-.449.151-.753.347-1.158.752-.356.338-.384.736-.087.977.276.225.536.196.868-.098.42-.368.747-.518 1.152-.518.405-.008.716.135 1.15.518.333.293.594.323.869.098.145-.12.188-.218.188-.444 0-.232-.051-.338-.305-.593-.716-.721-1.78-.999-2.678-.692zm8.441-.008c-.462.173-1.057.564-1.295.857-.232.286-.24.609 0 .85.238.255.528.24.876-.045.854-.707 1.492-.729 2.281-.076.203.173.434.308.507.308.355 0 .644-.316.644-.692 0-.24-.601-.796-1.144-1.06-.601-.293-1.317-.346-1.868-.142zM12.04 26.224c-.21.203-.283.496-.174.729.08.188.203.263.702.398.225.06.319.135.398.323.101.249.109.249.667.271l.557.022v-.211c-.007-.3-.174-.736-.391-1.036-.253-.347-.695-.572-1.195-.617-.34-.03-.427-.015-.564.121zm6.914-.053c-.362.098-.883.587-1.028.969a2.525 2.525 0 0 0-.137.677v.008c-.014.323.014.398.188.556.427.376.992.083.992-.518 0-.293.217-.496.601-.572.405-.075.55-.24.557-.623 0-.504-.449-.699-1.173-.496z"/></symbol><symbol id="icon-arrow-focus" viewBox="0 0 69 32"><path d="M68.08 17.413c.361-.362.585-.861.585-1.413s-.224-1.052-.585-1.413L55.353 1.858a2.001 2.001 0 0 0-2.83 2.83l11.316 11.313-11.315 11.313a2.001 2.001 0 0 0 2.83 2.83l12.728-12.728zM0 18h66.667v-4H0v4z"/></symbol><symbol id="icon-arrow-hover" viewBox="0 0 102 32"><path d="M101.414 17.414c.362-.362.586-.862.586-1.414s-.224-1.052-.586-1.414L88.686 1.858a2 2 0 1 0-2.829 2.827l.001.001L97.172 16 85.858 27.314a2 2 0 0 0 2.829 2.827l-.001.001 12.728-12.728zM0 18h100v-4H0v4z"/></symbol><symbol id="icon-arrow" viewBox="0 0 82 32"><path d="M81.414 17.414c.362-.362.586-.862.586-1.414s-.224-1.052-.586-1.414L68.686 1.858a2 2 0 1 0-2.829 2.827l.001.001L77.172 16 65.858 27.314a2 2 0 0 0 2.829 2.827l-.001.001 12.728-12.728zM0 18h80v-4H0v4z"/></symbol><symbol id="icon-facebook" viewBox="0 0 16 32"><path fill="#84a178" style="fill:var(--color2,#84a178)" d="M14.143 15.971H10.11v14.865H3.998V15.971H1.092v-5.222h2.906V7.367c0-2.417 1.142-6.204 6.167-6.204l4.527.019v5.072h-3.284c-.538 0-1.297.272-1.297 1.425v3.073h4.567l-.534 5.219z"/></symbol><symbol id="icon-telegram" viewBox="0 0 44 32"><path fill="#84a178" style="fill:var(--color2,#84a178)" d="m17.346 21.048-.676 8.86c.966 0 1.384-.388 1.886-.852l4.528-4.04 9.38 6.414c1.72.894 2.932.422 3.396-1.478L42.02 3.02C42.566.648 41.1-.28 39.424.3L3.23 13.234C.76 14.13.798 15.414 2.81 16l9.254 2.686L33.558 6.134c1.01-.626 1.93-.28 1.174.346L17.346 21.05z"/></symbol><symbol id="icon-github" viewBox="0 0 32 32"><path fill="#84a178" style="fill:var(--color2,#84a178)" d="M16 0C7.211 0 0 7.211 0 16c0 7.499 5.262 14.312 12.25 16v-5.293a3.921 3.921 0 0 1-2.062-.06l.028.007c-.946-.278-1.714-.909-2.285-1.869-.363-.613-1.008-1.28-1.68-1.23l-.165-1.867c1.454-.125 2.71.886 3.456 2.139.333.558.715.885 1.205 1.029.472.141.981.074 1.573-.136.149-1.186.693-1.629 1.104-2.256-4.168-.621-5.829-2.832-6.488-4.576-.874-2.318-.405-5.213 1.139-7.043.03-.035.085-.128.064-.192-.709-2.141.154-3.91.186-4.098.818.24.95-.243 3.552 1.336l.448.27c.189.112.128.048.317.032a13.246 13.246 0 0 1 3.349-.469h.01c1.136.014 2.272.176 3.403.483l.146.016c-.013-.003.04-.01.128-.062 3.248-1.968 3.131-1.325 4.003-1.608.032.189.882 1.987.182 4.099-.096.291 2.816 2.957 1.202 7.235-.659 1.744-2.32 3.957-6.486 4.578.534.816 1.176 1.248 1.173 2.928v6.606c6.986-1.688 12.25-8.501 12.25-16 0-8.789-7.211-16-16-16z"/></symbol><symbol id="icon-logo" viewBox="0 0 34 32"><path fill="#f8d24e" style="fill:var(--color3,#f8d24e)" d="M17.412 14.169c1.636-4.385-1.75-6.784-3.994-8.363-.429-.321-.858-.623-1.205-.898a4.206 4.206 0 0 1-1.31-1.939l-.008-.03a4.177 4.177 0 0 1-.027-2.39l-.007.029a.458.458 0 0 0-.133-.456.466.466 0 0 0-.476-.093l.003-.001a7.6 7.6 0 0 0-2.081 1.225A4.938 4.938 0 0 0 6.77 2.935l-.013.028a4.779 4.779 0 0 0-.51 2.152v.001a5.752 5.752 0 0 0-1.1 1.133l-.011.016a4.147 4.147 0 0 0-.819 2.702v-.01a5.325 5.325 0 0 0-1.475 2.254l-.011.038A5.31 5.31 0 0 0 2.689 14l-.006-.035a1.451 1.451 0 0 0-.602.704 1.412 1.412 0 0 0-.044.931l-.003-.01c.087.304.272.571.527.761s.567.292.886.289h.03v2.493c0 .253.102.496.283.675s.427.279.683.279h.751L6.417 30.56a.944.944 0 0 0 .313.605.976.976 0 0 0 .644.243h5.089c.238-.001.466-.087.644-.244s.29-.371.317-.604l1.223-10.473h.751c.256 0 .501-.1.683-.279s.282-.422.282-.675V16.64h.031c.403 0 .768-.162 1.034-.424.274-.27.429-.639.429-1.022v-.017c0-.398-.164-.757-.429-1.014l-.013.005zM6.399 6.214c.619 2.294 3.004 3.197 5.179 4.004a.471.471 0 0 0 .68-.224l.001-.003a.456.456 0 0 0-.163-.541l-.001-.001a.45.45 0 0 0-.185-.078h-.003c-2.342-.878-4.552-1.696-4.72-4.041a3.867 3.867 0 0 1 .367-1.899l-.01.023c.284-.6.694-1.099 1.199-1.48l.01-.007c.307-.254.65-.49 1.012-.694l.035-.018a5.438 5.438 0 0 0 .001.902l-.001-.02c.05.672.235 1.327.547 1.927a5.078 5.078 0 0 0 1.255 1.556l.008.007c.356.301.798.61 1.287.941 1.129.801 2.411 1.696 3.226 2.908.509.718.814 1.612.814 2.576 0 .623-.127 1.217-.357 1.756l.011-.029h-1.897c-3.908.001-8.4-1.068-9.289-4.061a3.39 3.39 0 0 1 .01-1.908l-.006.024a3.44 3.44 0 0 1 1.005-1.595l.003-.003-.021-.021zm3.518 14.455 1.433 1.416-1.433 1.417-1.433-1.425 1.433-1.408zm3.287 3.719-1.185 1.17-1.433-1.417 1.433-1.412 1.244 1.225-.06.432zm-3.287 3.248-1.434-1.417 1.433-1.417 1.433 1.417-1.433 1.417zm-.656-3.486-1.433 1.417-1.193-1.179-.051-.424 1.244-1.225 1.433 1.412zm-2.094 2.069-.287.284-.073-.645.36.361zm-.15 1.451.811-.802 1.574 1.569a.707.707 0 0 0 .03.092H7.115l-.099-.86zm4.994-.802.811.801-.098.848h-2.382l1.669-1.65zm.944-.364-.288-.284.365-.361-.077.645zm.429-3.707-.717-.721.91-.899-.193 1.62zm-1.378-1.365-1.36-1.34h2.72l-1.36 1.34zm-4.183 0-1.359-1.34h2.72l-1.36 1.34zm4.634 9.058H7.373a.034.034 0 0 1-.03-.03l-.121-1.018h5.389l-.116 1.018a.034.034 0 0 1-.034.03h-.004zm3.934-14.774h-1.493a.478.478 0 0 0-.359.118.46.46 0 0 0-.113.532l-.001-.003c.054.119.154.21.277.251l.003.001c.062.021.128.028.192.021h.533v2.493a.034.034 0 0 1-.034.03H4.425a.034.034 0 0 1-.034-.03v-2.493h8.499a.472.472 0 0 0 .301-.149.46.46 0 0 0-.3-.771H3.45a.536.536 0 0 1-.532-.308l-.001-.003a.518.518 0 0 1 .128-.599.532.532 0 0 1 .408-.135h-.002.974a.46.46 0 0 0 .3-.771.465.465 0 0 0-.3-.149h-.86a4.47 4.47 0 0 1 .066-1.976l-.007.031a4.535 4.535 0 0 1 .883-1.751l-.006.008c.301.924 1.073 2.188 3.004 3.193 1.815.937 4.218 1.416 7.14 1.416h1.716a.537.537 0 0 1 .408.136.522.522 0 0 1 .001.777.532.532 0 0 1-.409.135h.033zm3.426 12.199-.343.526.007.005.336-.531zm3.697.178.629-.014-.016-.727-.718.122.106.62zm.043 1.934.16.609.48-.127-.011-.496-.629.014zm-4.852.093.142-.613h-.004l-.138.613zm-2.395-1.069.407-.479-.001-.001-.405.48zm-.865-1.965.629.003v-.003h-.629zm.301-1.376-.565-.277v.001l.565.277zm1.929-1.645.223.587h.003l-.225-.587zm6.178-.16.627.049.041-.531-.517-.128-.151.61zm-.154 1.971-.117.619.69.13.055-.7-.627-.049zm-1.677-.806c-.944 0-1.737.1-2.317.356-.297.13-.567.314-.764.574a1.47 1.47 0 0 0-.299.893v.017-.001h1.257c0-.073.018-.114.045-.149a.673.673 0 0 1 .267-.182c.338-.149.92-.249 1.811-.249V25.07zm-3.38 1.838c0 .647.29 1.18.832 1.535l.687-1.054a.511.511 0 0 1-.261-.481h-1.259zm.84 1.539c.513.325 1.191.448 1.951.448v-1.259c-.656 0-1.055-.111-1.279-.252l-.673 1.063zm1.951.448c.747 0 1.476-.06 2.187-.181l-.21-1.24c-.64.109-1.299.164-1.977.164v1.257zm1.453-.788.043 1.934 1.257-.028-.043-1.934-1.257.028zm.512 1.312a9.365 9.365 0 0 1-2.383.287v1.258c.964 0 1.866-.107 2.702-.328l-.32-1.216zm-2.383.287c-.889 0-1.607-.07-2.168-.199l-.282 1.226c.684.157 1.505.231 2.451.231v-1.258zm-2.171-.199c-.601-.135-1.034-.277-1.323-.419l-.553 1.131c.415.203.956.371 1.6.515l.275-1.227zm-1.323-.419a3.832 3.832 0 0 1-.809-.521l.006.005-.813.959c.314.267.671.495 1.065.687l.552-1.13zm-.803-.517c-.428-.361-.647-.833-.644-1.482l-1.258-.006c-.005.989.353 1.828 1.089 2.449l.811-.961zm-.644-1.485c0-.423.083-.785.237-1.099l-1.129-.553a3.72 3.72 0 0 0-.366 1.653h1.258zm.236-1.098c.287-.582.791-1.033 1.587-1.335l-.446-1.175c-1.038.394-1.819 1.04-2.27 1.956l1.129.555zm1.59-1.337c.836-.321 1.771-.486 2.808-.486v-1.257c-1.173 0-2.261.186-3.259.57l.451 1.174zm2.808-.486c1.059 0 2.055.118 2.994.35l.302-1.22a13.314 13.314 0 0 0-3.228-.387h-.072.004v1.257zm2.518-.309-.154 1.972 1.254.097.154-1.971-1.254-.098zm.59 1.403a9.73 9.73 0 0 0-1.793-.19v1.259c.442 0 .961.053 1.559.166l.235-1.235zm6.137 1.004-.004.629.639.004-.007-.639-.628.007zm-.27-.817-.428.461.006.005.422-.466zm-1.567.062.436.454.004-.004-.44-.449zm-.381.743-.621-.102-.119.727.737.004.004-.629zm4.625 3.353.38.501.226-.171.021-.283-.627-.047zm-1.358.504-.135-.614-.004.001.139.614zm-4.716-.172-.215.591.005.002.21-.593zm-1.075-.571-.39.493.008.006.383-.498zm-.718-.903-.564.279.001.003.562-.282zm.737-3.814zm5.748-.682.252-.576-.006-.003-.245.579zm1.444 1.327-.566.275.001.004.565-.279zm.245 1.099.627.046.001-.023v-.023h-.629zm-.074 1.013-.003.629.587.003.043-.586-.627-.046zm-4.981-.024.004-.629-.821-.004.209.794.608-.161zm.713.878-.309.548.002.001.307-.549zm3.82-.215v-.629h-.126l-.116.048.242.58zm.331 0 .627.047.05-.676h-.678v.629zm-1.895-1.788c-.005-.455-.11-.943-.476-1.276l-.846.932c-.007-.007.007.001.026.055.018.058.037.154.038.302l1.258-.014zm-.471-1.27c-.33-.306-.763-.407-1.189-.407v1.257c.245 0 .32.059.334.071l.855-.921zm-1.189-.408c-.469 0-.904.146-1.244.48l.88.899c.069-.068.17-.121.365-.121v-1.259zm-1.24.477a1.913 1.913 0 0 0-.565 1.084l-.001.011 1.241.204a.66.66 0 0 1 .196-.391l-.871-.908zm.051 1.825 2.217.012.007-1.258-2.217-.012-.007 1.258zm4.248 2.223c-.138.105-.474.25-1.113.391l.27 1.228c.664-.146 1.232-.336 1.602-.617l-.759-1.003zm-1.116.391a7.95 7.95 0 0 1-1.759.206v1.257c.664 0 1.344-.08 2.037-.237l-.277-1.227zm-1.759.206c-.593 0-1.081-.028-1.47-.081l-.168 1.247c.462.063 1.01.092 1.638.092v-1.259zm-1.47-.081a5.707 5.707 0 0 1-1.18-.289l.04.013-.419 1.186c.399.147.869.265 1.354.333l.037.004.168-1.247zm-1.135-.274a3.37 3.37 0 0 1-.915-.486l.009.006-.765.998c.358.274.775.494 1.243.663l.429-1.182zm-.899-.474a2.027 2.027 0 0 1-.541-.679l-.005-.012-1.125.562c.219.443.519.815.884 1.11l.006.005.781-.986zm-.545-.688c-.132-.267-.211-.612-.211-1.054h-1.257c0 .59.105 1.134.341 1.611l1.127-.558zm-.211-1.054c0-.442.08-.833.231-1.18l-1.154-.501a4.124 4.124 0 0 0-.334 1.639v.044-.002h1.258zm.231-1.181c.159-.366.353-.636.572-.831l-.837-.94a3.577 3.577 0 0 0-.889 1.269l1.153.501zm.572-.831c.676-.602 1.707-.952 3.193-.952v-1.257c-1.668 0-3.044.391-4.03 1.271l.837.939zm3.193-.952c.666 0 1.295.127 1.892.38l.491-1.158a5.946 5.946 0 0 0-2.359-.479h-.024.001v1.257zm1.885.378c.557.243.917.587 1.129 1.025l1.131-.55c-.36-.741-.962-1.281-1.756-1.628l-.503 1.153zm1.131 1.029c.118.238.181.508.181.821h1.257c0-.489-.1-.953-.311-1.378l-1.128.557zm.183.775-.074 1.013 1.254.091.074-1.013-1.254-.091zm.557.43-4.981-.025-.006 1.258 4.981.024.006-1.258zm-5.593.764c.147.558.506.98 1.011 1.266l.619-1.095c-.249-.141-.364-.304-.414-.491l-1.216.32zm1.014 1.267c.511.285 1.148.4 1.861.4V27.95c-.597 0-.996-.099-1.247-.24l-.614 1.098zm1.861.399c.765 0 1.605-.207 2.508-.583l-.484-1.161c-.809.336-1.479.486-2.025.486v1.258zm2.266-.534h.331v-1.257h-.331v1.257zm-.296-.676-.117 1.56 1.254.094.117-1.56-1.254-.094z"/></symbol></defs></svg>