<svg aria-hidden="true" style="position: absolute; width: 0; height: 0; overflow: hidden;" version="1.1" xmlns="http://www.w3.org/2000/svg" xmlns:xlink="http://www.w3.org/1999/xlink">
<defs>
<symbol id="icon-hero-arrow" viewBox="0 0 82 32">
<path d="M81.414 17.414c0.781-0.781 0.781-2.047 0-2.828l-12.728-12.728c-0.781-0.781-2.047-0.781-2.828 0s-0.781 2.047 0 2.828l11.314 11.314-11.314 11.314c-0.781 0.781-0.781 2.047 0 2.828s2.047 0.781 2.828 0l12.728-12.728zM0 18h80v-4h-80v4z"></path>
</symbol>
<symbol id="icon-hero-arrow-focus" viewBox="0 0 69 32">
<path d="M68.133 17.467c0.8-0.8 0.8-2 0-2.8l-12.667-12.667c-0.8-0.8-2-0.8-2.8 0s-0.8 2 0 2.8l11.333 11.333-11.333 11.333c-0.8 0.8-0.8 2 0 2.8s2 0.8 2.8 0l12.667-12.8zM0 18h66.667v-4h-66.667v4z"></path>
</symbol>
<symbol id="icon-hero-arrow-hover" viewBox="0 0 102 32">
<path d="M101.4 17.4c0.8-0.8 0.8-2 0-2.8l-12.8-12.8c-0.8-0.8-2-0.8-2.8 0s-0.8 2 0 2.8l11.4 11.4-11.4 11.4c-0.8 0.8-0.8 2 0 2.8s2 0.8 2.8 0l12.8-12.8zM0 18h100v-4h-100v4z"></path>
</symbol>
</defs>
</svg>
